<?xml version="1.0" encoding="UTF-8" standalone="no"?>
<svg
   xmlns:dc="http://purl.org/dc/elements/1.1/"
   xmlns:cc="http://creativecommons.org/ns#"
   xmlns:rdf="http://www.w3.org/1999/02/22-rdf-syntax-ns#"
   xmlns:svg="http://www.w3.org/2000/svg"
   xmlns="http://www.w3.org/2000/svg"
   xmlns:sodipodi="http://sodipodi.sourceforge.net/DTD/sodipodi-0.dtd"
   xmlns:inkscape="http://www.inkscape.org/namespaces/inkscape"
   inkscape:version="1.0 (4035a4f, 2020-05-01)"
   inkscape:export-ydpi="75.540985"
   inkscape:export-xdpi="75.540985"
   inkscape:export-filename="/Users/cdsfdvonedge/dbprepobrowser/images/icon.png"
   sodipodi:docname="icon.svg"
   id="svg2250"
   version="1.1"
   viewBox="0 0 80.697918 80.697919"
   height="305"
   width="305">
  <defs
     id="defs2244">
    <inkscape:path-effect
       end_linecap_type="zerowidth"
       scale_width="1"
       miter_limit="4"
       linejoin_type="extrp_arc"
       start_linecap_type="zerowidth"
       interpolator_beta="0.2"
       interpolator_type="CubicBezierJohan"
       sort_points="true"
       offset_points="0,0.1322915"
       lpeversion="1"
       is_visible="true"
       id="path-effect3184"
       effect="powerstroke" />
    <marker
       inkscape:isstock="true"
       style="overflow:visible"
       id="Arrow1Lend"
       refX="0"
       refY="0"
       orient="auto"
       inkscape:stockid="Arrow1Lend">
      <path
         transform="matrix(-0.8,0,0,-0.8,-10,0)"
         style="fill:#000000;fill-opacity:1;fill-rule:evenodd;stroke:#000000;stroke-width:1pt;stroke-opacity:1"
         d="M 0,0 5,-5 -12.5,0 5,5 Z"
         id="path2837" />
    </marker>
  </defs>
  <sodipodi:namedview
     inkscape:window-maximized="0"
     inkscape:window-y="79"
     inkscape:window-x="81"
     inkscape:window-height="943"
     inkscape:window-width="1252"
     units="px"
     showguides="false"
     showgrid="false"
     inkscape:document-rotation="0"
     inkscape:current-layer="layer1"
     inkscape:document-units="mm"
     inkscape:cy="253.75818"
     inkscape:cx="65.04193"
     inkscape:zoom="0.89471202"
     inkscape:pageshadow="2"
     inkscape:pageopacity="0.0"
     borderopacity="1.0"
     bordercolor="#666666"
     pagecolor="#ffffff"
     id="base" />
  <metadata
     id="metadata2247">
    <rdf:RDF>
      <cc:Work
         rdf:about="">
        <dc:format>image/svg+xml</dc:format>
        <dc:type
           rdf:resource="http://purl.org/dc/dcmitype/StillImage" />
        <dc:title></dc:title>
      </cc:Work>
    </rdf:RDF>
  </metadata>
  <g
     transform="translate(0.66145832,8.5989185)"
     id="layer1"
     inkscape:groupmode="layer"
     inkscape:label="Layer 1">
    <path
       d="M 29.104166,-7.9374999 18.520833,5.2916666 H 23.8125 V 15.709635 H 18.520833 V 8.0858113 A 31.75,31.75 0 0 0 7.9375,31.75 a 31.75,31.75 0 0 0 15.875,27.495997 31.75,31.75 0 0 0 0.03514,0.02016 31.75,31.75 0 0 0 0.156579,0.0894 31.75,31.75 0 0 0 0.05219,0.02946 31.75,31.75 0 0 0 0.14676,0.08268 31.75,31.75 0 0 0 0.08785,0.04858 31.75,31.75 0 0 0 0.111621,0.06201 31.75,31.75 0 0 0 0.12454,0.06821 31.75,31.75 0 0 0 0.07545,0.04082 31.75,31.75 0 0 0 0.0615,0.03307 31.75,31.75 0 0 0 0.125057,0.06666 31.75,31.75 0 0 0 0.192753,0.101801 31.75,31.75 0 0 0 0.04599,0.02376 31.75,31.75 0 0 0 0.179835,0.0925 31.75,31.75 0 0 0 0.02739,0.01394 31.75,31.75 0 0 0 0.135392,0.06925 31.75,31.75 0 0 0 0.12299,0.06201 31.75,31.75 0 0 0 0.09715,0.04806 31.75,31.75 0 0 0 0.105937,0.05271 31.75,31.75 0 0 0 0.103352,0.05013 31.75,31.75 0 0 0 0.151929,0.07338 31.75,31.75 0 0 0 0.01602,0.0078 31.75,31.75 0 0 0 0.128157,0.06098 31.75,31.75 0 0 0 0.220659,0.103352 31.75,31.75 0 0 0 0.185001,0.08527 31.75,31.75 0 0 0 0.05788,0.02635 31.75,31.75 0 0 0 0.159163,0.07183 31.75,31.75 0 0 0 0.07028,0.03101 31.75,31.75 0 0 0 0.194304,0.08578 31.75,31.75 0 0 0 0.223759,0.09663 31.75,31.75 0 0 0 0.210839,0.0894 31.75,31.75 0 0 0 0.03669,0.0155 31.75,31.75 0 0 0 0.120923,0.05013 31.75,31.75 0 0 0 0.148828,0.06098 31.75,31.75 0 0 0 0.07183,0.02945 31.75,31.75 0 0 0 0.126607,0.05064 31.75,31.75 0 0 0 0.171049,0.0677 31.75,31.75 0 0 0 0.02997,0.01138 31.75,31.75 0 0 0 0.135909,0.05271 31.75,31.75 0 0 0 0.14056,0.05426 31.75,31.75 0 0 0 0.08423,0.03204 31.75,31.75 0 0 0 0.112138,0.04186 31.75,31.75 0 0 0 0.19637,0.07235 31.75,31.75 0 0 0 0.228927,0.08268 31.75,31.75 0 0 0 0.22996,0.08113 31.75,31.75 0 0 0 0.230477,0.07906 31.75,31.75 0 0 0 0.230993,0.07752 31.75,31.75 0 0 0 0.186552,0.06098 31.75,31.75 0 0 0 0.09095,0.02945 31.75,31.75 0 0 0 0.129191,0.04134 31.75,31.75 0 0 0 0.0801,0.02532 31.75,31.75 0 0 0 0.210323,0.0646 31.75,31.75 0 0 0 0.23306,0.07028 31.75,31.75 0 0 0 0.234095,0.06873 31.75,31.75 0 0 0 0.234094,0.06666 31.75,31.75 0 0 0 0.470772,0.128159 31.75,31.75 0 0 0 0.618567,0.157096 h 0.0036 a 31.75,31.75 0 0 0 2.19108,0.450625 V 62.604964 52.244354 5.2916666 H 39.6875 Z m 15.875,8.38191721 V 11.255644 58.208333 H 39.6875 L 50.270833,71.437499 60.854166,58.208333 H 55.562499 V 47.333545 h 5.291667 v 8.080642 A 31.75,31.75 0 0 0 71.437499,31.75 31.75,31.75 0 0 0 55.562499,4.2540039 31.75,31.75 0 0 0 55.52736,4.2338505 31.75,31.75 0 0 0 55.351142,4.1330816 a 31.75,31.75 0 0 0 -0.123505,-0.069763 31.75,31.75 0 0 0 -0.08888,-0.049609 31.75,31.75 0 0 0 -0.124023,-0.06873 31.75,31.75 0 0 0 -0.0894,-0.049093 31.75,31.75 0 0 0 -0.124542,-0.067696 31.75,31.75 0 0 0 -0.08992,-0.048576 A 31.75,31.75 0 0 0 54.370324,3.599264 31.75,31.75 0 0 0 54.347064,3.587379 31.75,31.75 0 0 0 54.153794,3.487644 31.75,31.75 0 0 0 54.062844,3.441135 31.75,31.75 0 0 0 53.936239,3.377056 31.75,31.75 0 0 0 53.845289,3.331581 31.75,31.75 0 0 0 53.718165,3.268536 31.75,31.75 0 0 0 53.626695,3.223577 31.75,31.75 0 0 0 53.575015,3.198772 31.75,31.75 0 0 0 53.407068,3.11764 31.75,31.75 0 0 0 53.278909,3.056662 31.75,31.75 0 0 0 53.186919,3.013254 31.75,31.75 0 0 0 53.058247,2.953309 a 31.75,31.75 0 0 0 -0.0925,-0.042892 31.75,31.75 0 0 0 -0.128675,-0.058911 31.75,31.75 0 0 0 -0.0217,-0.00982 31.75,31.75 0 0 0 -0.200504,-0.090434 31.75,31.75 0 0 0 -0.02894,-0.012404 31.75,31.75 0 0 0 -0.194305,-0.085783 31.75,31.75 0 0 0 -5.29e-4,0 31.75,31.75 0 0 0 -0.447516,-0.1917196 31.75,31.75 0 0 0 -0.09405,-0.039274 31.75,31.75 0 0 0 -0.05013,-0.020671 31.75,31.75 0 0 0 -0.175183,-0.07183 31.75,31.75 0 0 0 -0.131773,-0.053227 31.75,31.75 0 0 0 -0.04031,-0.01602 31.75,31.75 0 0 0 -0.186029,-0.073379 31.75,31.75 0 0 0 -0.09509,-0.037207 31.75,31.75 0 0 0 -0.04702,-0.018087 31.75,31.75 0 0 0 -0.40876,-0.1545125 31.75,31.75 0 0 0 -0.133326,-0.049093 31.75,31.75 0 0 0 -0.0956,-0.034623 31.75,31.75 0 0 0 -0.133324,-0.048059 31.75,31.75 0 0 0 -0.09612,-0.034107 31.75,31.75 0 0 0 -0.03721,-0.012919 31.75,31.75 0 0 0 -0.423746,-0.1457276 31.75,31.75 0 0 0 -0.134358,-0.044958 31.75,31.75 0 0 0 -0.09715,-0.032039 31.75,31.75 0 0 0 -0.134876,-0.043925 31.75,31.75 0 0 0 -0.09663,-0.031006 31.75,31.75 0 0 0 -0.04444,-0.013953 31.75,31.75 0 0 0 -0.188103,-0.058911 31.75,31.75 0 0 0 -0.135908,-0.041858 31.75,31.75 0 0 0 -0.09715,-0.029456 31.75,31.75 0 0 0 -0.135908,-0.040824 31.75,31.75 0 0 0 -0.09767,-0.028939 31.75,31.75 0 0 0 -0.05994,-0.017053 31.75,31.75 0 0 0 -0.174151,-0.050643 31.75,31.75 0 0 0 -0.136424,-0.038757 31.75,31.75 0 0 0 -0.04083,-0.011369 31.75,31.75 0 0 0 -0.429948,-0.1167888 31.75,31.75 0 0 0 -0.03255,-0.00827 31.75,31.75 0 0 0 -0.91364,-0.225826 31.75,31.75 0 0 0 -0.09922,-0.0227375 31.75,31.75 0 0 0 -0.02066,-0.004651 31.75,31.75 0 0 0 -0.455277,-0.10025263 31.75,31.75 0 0 0 -0.139009,-0.0289388 31.75,31.75 0 0 0 -0.01241,-0.002585 31.75,31.75 0 0 0 -0.226343,-0.0459921 31.75,31.75 0 0 0 -0.09974,-0.0196371 31.75,31.75 0 0 0 -0.0072,-0.00155 31.75,31.75 0 0 0 -0.471805,-0.0888835 31.75,31.75 0 0 0 -0.140044,-0.0248047 31.75,31.75 0 0 0 -0.02479,-0.004134 31.75,31.75 0 0 0 -0.170548,-0.0294542 z M 23.8125,17.749821 V 45.749662 A 21.166664,21.166664 0 0 1 18.520833,31.75 21.166664,21.166664 0 0 1 23.8125,17.749821 Z m 31.749999,5.29e-4 A 21.166664,21.166664 0 0 1 60.854166,31.75 21.166664,21.166664 0 0 1 55.562499,45.750178 Z"
       style="fill:#ff0000;fill-opacity:1;stroke:#310000;stroke-width:1.32292;stroke-linejoin:round;stroke-miterlimit:4;stroke-dasharray:none;stroke-opacity:1;paint-order:markers fill stroke"
       id="path3347" />
    <path
       d="m 58.208333,41.552542 a 21.166665,21.166665 0 0 1 -3.256648,4.416785 v 0.91984 h 3.256648 z"
       style="fill:#000000;fill-opacity:0.263158;stroke:none;stroke-width:0.206268;stroke-linejoin:round;stroke-miterlimit:4;stroke-dasharray:none;stroke-opacity:0.145749;paint-order:markers fill stroke"
       id="rect3364-8-5-9" />
    <path
       d="m 21.166667,15.265257 v 5.793446 a 21.166665,21.166665 0 0 1 3.105236,-4.257105 v -1.536341 z"
       style="fill:#000000;fill-opacity:0.263158;stroke:none;stroke-width:0.206268;stroke-linejoin:round;stroke-miterlimit:4;stroke-dasharray:none;stroke-opacity:0.145749;paint-order:markers fill stroke"
       id="rect3364-8-5-9-8" />
  </g>
</svg>
