<?xml version="1.0" encoding="UTF-8" standalone="no"?>
<svg
   xmlns:dc="http://purl.org/dc/elements/1.1/"
   xmlns:cc="http://creativecommons.org/ns#"
   xmlns:rdf="http://www.w3.org/1999/02/22-rdf-syntax-ns#"
   xmlns:svg="http://www.w3.org/2000/svg"
   xmlns="http://www.w3.org/2000/svg"
   xmlns:sodipodi="http://sodipodi.sourceforge.net/DTD/sodipodi-0.dtd"
   xmlns:inkscape="http://www.inkscape.org/namespaces/inkscape"
   width="117.32115mm"
   height="88.595238mm"
   viewBox="0 0 117.32115 88.595236"
   version="1.1"
   id="svg8"
   inkscape:version="1.0 (4035a4f, 2020-05-01)"
   sodipodi:docname="rbutton.svg">
  <defs
     id="defs2">
    <rect
       x="3.7797618"
       y="4.5357141"
       width="89.202377"
       height="86.934525"
       id="rect853" />
  </defs>
  <sodipodi:namedview
     id="base"
     pagecolor="#ffffff"
     bordercolor="#666666"
     borderopacity="1.0"
     inkscape:pageopacity="0.0"
     inkscape:pageshadow="2"
     inkscape:zoom="0.35"
     inkscape:cx="359.28578"
     inkscape:cy="567.85721"
     inkscape:document-units="mm"
     inkscape:current-layer="layer1"
     inkscape:document-rotation="0"
     showgrid="false"
     inkscape:window-width="1252"
     inkscape:window-height="943"
     inkscape:window-x="0"
     inkscape:window-y="262"
     inkscape:window-maximized="0" />
  <metadata
     id="metadata5">
    <rdf:RDF>
      <cc:Work
         rdf:about="">
        <dc:format>image/svg+xml</dc:format>
        <dc:type
           rdf:resource="http://purl.org/dc/dcmitype/StillImage" />
        <dc:title />
      </cc:Work>
    </rdf:RDF>
  </metadata>
  <g
     transform="translate(2.8348384,2.078886)"
     inkscape:label="Layer 1"
     inkscape:groupmode="layer"
     id="layer1">
    <path
       style="fill:none;fill-opacity:1;fill-rule:nonzero;stroke:#000000;stroke-width:13;stroke-linecap:butt;stroke-linejoin:round;stroke-miterlimit:4;stroke-dasharray:none;stroke-opacity:1"
       d="M 107.98659,80.016348 H 3.6651616 V 4.421114 H 80.772305 Z"
       id="path1475-0" />
    <path
       transform="matrix(0.26458333,0,0,0.26458333,-2.8348384,-2.078886)"
       d="M 24.566406,24.566406 V 310.28125 H 418.85352 L 315.99609,24.566406 Z m 121.748044,56 h 39.09375 c 8.4375,0 15.46876,0.562501 21.09375,1.6875 5.625,1.062501 10.6875,3.000003 15.1875,5.8125 5.0625,3.187503 9.00001,7.218752 11.8125,12.093754 2.87501,4.8125 4.3125,10.9375 4.3125,18.375 0,10.06249 -2.53125,18.5 -7.59375,25.3125 -5.0625,6.74999 -12.03124,11.84374 -20.90625,15.28125 l 52.5,61.03125 H 237.7207 l -46.6875,-55.5 h -26.15625 v 55.5 h -18.5625 z m 18.5625,15.9375 v 52.687504 h 18.75 c 5.875,0 11,-0.50002 15.375,-1.5 4.37501,-1.06251 8.09375,-3 11.15625,-5.8125 2.8125,-2.625 4.875,-5.625 6.1875,-9 1.375,-3.4375 2.0625,-7.78125 2.0625,-13.03125 0,-4 -0.71874,-7.53126 -2.15625,-10.59375 -1.37499,-3.12501 -3.68748,-5.75 -6.9375,-7.875 -2.68749,-1.812504 -5.87501,-3.062505 -9.5625,-3.750004 -3.68751,-0.750002 -8.03123,-1.125 -13.03125,-1.125 z"
       style="fill:#000000;fill-opacity:1;fill-rule:nonzero;stroke:none;stroke-width:49.1339;stroke-linecap:butt;stroke-linejoin:round;stroke-miterlimit:4;stroke-dasharray:none;stroke-opacity:1"
       id="path1475" />
  </g>
</svg>
